<svg width="30" height="30" viewBox="0 0 30 30" fill="none" xmlns="http://www.w3.org/2000/svg">
<path d="M15.4018 10.302C18.03 10.3021 20.1541 12.4262 20.1542 15.0544C20.1542 17.6826 18.0232 19.8072 15.4018 19.8072C12.7736 19.8072 10.649 17.6758 10.649 15.0544C10.649 12.433 12.7736 10.302 15.4018 10.302Z" fill="#737987"/>
<path fill-rule="evenodd" clip-rule="evenodd" d="M22.2857 0C26.5462 0 30 3.4538 30 7.71429V22.2857C30 26.5462 26.5462 30 22.2857 30H7.71429C3.4538 30 2.34709e-07 26.5462 0 22.2857V7.71429C0 3.4538 3.4538 2.34694e-07 7.71429 0H22.2857ZM15.4018 7.14927C11.0373 7.14927 7.49665 10.6832 7.49665 15.0477C7.49667 19.4122 11.0373 22.9461 15.4018 22.9461C19.7662 22.9461 23.3002 19.4054 23.3002 15.0477C23.3002 10.69 19.7594 7.14931 15.4018 7.14927ZM22.7553 5.01814C21.6455 5.01815 20.7468 5.91685 20.7468 7.02665C20.7468 8.13649 21.6455 9.03556 22.7553 9.03557C23.8652 9.03557 24.7638 8.1365 24.7638 7.02665C24.7638 5.91684 23.8651 5.01814 22.7553 5.01814Z" fill="#737987"/>
</svg>
