<svg width="35" height="25" viewBox="0 0 35 25" fill="none" xmlns="http://www.w3.org/2000/svg">
<path d="M34.2707 3.90531C33.8694 2.36716 32.68 1.15861 31.1775 0.749101C28.4464 0 17.5024 0 17.5024 0C17.5024 0 6.55363 0 3.82744 0.749101C2.31996 1.15861 1.13551 2.37215 0.734163 3.90531C0 6.68698 0 12.5 0 12.5C0 12.5 0 18.313 0.729269 21.0947C1.13061 22.6328 2.31996 23.8414 3.82254 24.2509C6.55363 25 17.4976 25 17.4976 25C17.4976 25 28.4415 25 31.1726 24.2509C32.68 23.8414 33.8645 22.6278 34.2658 21.0947C35 18.308 35 12.5 35 12.5C35 12.5 35 6.68698 34.2658 3.90531H34.2707ZM13.998 17.8586V7.14143L23.0919 12.5L13.998 17.8586Z" fill="#737987"/>
</svg>
