<svg width="35" height="35" viewBox="0 0 35 35" fill="none" xmlns="http://www.w3.org/2000/svg">
<path d="M27.8232 14.3989C28.5844 14.3989 29.1987 15.0131 29.1987 15.7744C29.1986 16.5356 28.5843 17.1494 27.8232 17.1494C27.0623 17.1493 26.4484 16.5355 26.4482 15.7744C26.4482 15.0132 27.0622 14.399 27.8232 14.3989Z" fill="#737987"/>
<path d="M7.2915 14.4116C8.05265 14.4116 8.66699 15.0258 8.66699 15.7871C8.66693 16.5483 8.05261 17.1626 7.2915 17.1626C6.53049 17.1625 5.91022 16.5483 5.91016 15.7871C5.91016 15.0259 6.53045 14.4117 7.2915 14.4116Z" fill="#737987"/>
<path d="M19.5723 14.3989C20.3334 14.3989 20.9478 15.0131 20.9478 15.7744C20.9476 16.5356 20.3333 17.1494 19.5723 17.1494C18.8112 17.1493 18.191 16.5356 18.1909 15.7744C18.1909 15.0132 18.8112 14.399 19.5723 14.3989Z" fill="#737987"/>
<path fill-rule="evenodd" clip-rule="evenodd" d="M29.4736 2.3335C32.5246 2.3335 35 4.81554 35 7.87988V21.0391C35 24.1034 32.5246 26.5859 29.4736 26.5859H21.728L18.4082 31.9854C18.4064 31.9889 18.3803 32.0394 18.3125 32.1196C18.1462 32.3947 17.8518 32.5864 17.5 32.5864C17.1482 32.5864 16.8475 32.3947 16.6812 32.1133C16.6255 32.0453 16.5938 31.989 16.5918 31.9854L13.272 26.5859H5.52637C2.47538 26.5859 0 24.1034 0 21.0391V7.87988C0 4.81554 2.47538 2.3335 5.52637 2.3335H29.4736ZM27.3052 12.4668C27.2792 12.4658 24.2735 12.3535 24.2734 15.7485C24.2734 15.7485 24.2416 18.9282 27.2222 18.9282C27.2222 18.9282 28.4373 18.9792 29.1025 18.1094V18.6084C29.1042 18.6271 29.2406 20.1758 27.7402 20.1758H27.2222V22.0757H28.0537C28.0595 22.0757 31.1879 22.1044 31.188 18.73V12.6841H29.1025V13.2856C29.0975 13.279 28.4836 12.4668 27.3052 12.4668ZM3.80566 18.8193H5.96777V18.1221C5.97284 18.1311 6.48589 19.0435 7.76514 19.0435C7.78504 19.0427 10.784 18.9238 10.7842 15.7104C10.7842 15.7104 10.6753 12.4478 7.76514 12.4478L7.60889 12.4546C7.30005 12.4942 6.60107 12.6524 5.94873 13.2856V9.88867H3.80566V18.8193ZM19.5723 12.4668C19.548 12.4668 16.0352 12.4784 16.0352 15.7744C16.0341 15.8053 15.9376 19.0365 19.5723 19.0366C19.5723 19.0366 23.1927 19.0369 23.1929 15.7744C23.1929 15.7744 23.3076 12.4668 19.5723 12.4668ZM11.481 11.9614C11.481 11.9614 12.4599 11.9166 12.46 13.7397V19.0239H14.5259V13.2471C14.5266 13.2194 14.602 9.89502 11.481 9.89502V11.9614Z" fill="#737987"/>
</svg>
